<?xml version="1.0" standalone="no"?>
<!DOCTYPE svg PUBLIC "-//W3C//DTD SVG 20010904//EN"
 "http://www.w3.org/TR/2001/REC-SVG-20010904/DTD/svg10.dtd">
<svg version="1.0" xmlns="http://www.w3.org/2000/svg"
 width="800.000000pt" height="800.000000pt" viewBox="0 0 800.000000 800.000000"
 preserveAspectRatio="xMidYMid meet">

<g transform="translate(0.000000,800.000000) scale(0.100000,-0.100000)"
fill="#000000" stroke="none">
<path d="M3730 7994 c-19 -2 -84 -9 -145 -14 -654 -62 -1344 -322 -1902 -717
-348 -246 -700 -598 -946 -946 -395 -558 -637 -1197 -719 -1902 -17 -146 -17
-684 0 -830 92 -790 383 -1494 865 -2095 160 -199 408 -447 607 -607 601 -482
1305 -773 2095 -865 146 -17 684 -17 830 0 790 92 1494 383 2095 865 199 160
447 408 607 607 482 601 773 1305 865 2095 17 146 17 684 0 830 -92 790 -383
1494 -865 2095 -160 199 -408 447 -607 607 -589 472 -1276 761 -2045 859 -113
14 -651 28 -735 18z m730 -228 c741 -102 1362 -366 1930 -820 154 -124 416
-383 538 -534 566 -698 862 -1526 862 -2412 0 -886 -296 -1714 -862 -2412
-122 -151 -384 -410 -538 -534 -571 -457 -1194 -720 -1940 -821 -193 -26 -707
-26 -900 0 -746 101 -1369 364 -1940 821 -154 124 -416 383 -538 534 -566 698
-862 1526 -862 2412 0 886 296 1714 862 2412 122 151 384 410 538 534 384 306
784 522 1255 674 223 72 485 122 845 164 96 11 631 -2 750 -18z"/>
<path d="M3735 7394 c-172 -17 -257 -29 -370 -50 -210 -40 -475 -116 -475
-136 0 -10 68 -189 75 -196 2 -2 57 12 122 32 162 49 309 81 498 108 133 19
203 23 415 23 364 0 602 -36 949 -142 85 -26 156 -43 158 -38 2 6 21 51 43
100 l39 90 -37 17 c-118 53 -473 141 -704 173 -108 16 -615 29 -713 19z"/>
<path d="M2424 7016 c-550 -288 -1011 -718 -1329 -1241 -82 -134 -168 -303
-160 -315 6 -10 194 -85 198 -79 2 2 34 60 72 129 313 574 782 1032 1362 1328
51 26 93 50 93 54 0 22 -75 198 -84 198 -6 0 -75 -34 -152 -74z"/>
<path d="M5441 6959 c-23 -56 -41 -102 -39 -103 2 -1 55 -31 118 -66 221 -122
384 -236 582 -407 60 -51 111 -93 114 -93 4 0 41 34 81 75 65 65 73 78 62 91
-58 70 -377 320 -540 422 -84 53 -318 182 -330 182 -3 0 -24 -46 -48 -101z"/>
<path d="M3710 6905 c-63 -7 -158 -20 -210 -29 -158 -27 -430 -99 -430 -114 0
-14 71 -189 83 -204 11 -14 22 -13 112 13 172 50 449 99 563 99 l42 0 0 125
c0 123 0 125 -22 124 -13 -1 -75 -7 -138 -14z"/>
<path d="M4120 6795 l0 -125 48 0 c156 0 477 -65 722 -146 12 -4 27 22 61 103
26 59 44 111 42 115 -10 19 -327 105 -490 134 -75 13 -333 44 -370 44 -10 0
-13 -32 -13 -125z"/>
<path d="M2644 6586 c-524 -279 -938 -690 -1219 -1209 -26 -48 -45 -92 -43
-98 3 -8 200 -99 214 -99 1 0 25 43 54 95 63 117 186 301 276 415 88 109 275
296 384 384 117 93 326 231 443 291 53 28 97 54 97 59 0 23 -83 216 -94 216
-6 0 -56 -24 -112 -54z"/>
<path d="M5252 6510 c-23 -55 -42 -105 -42 -112 0 -7 30 -29 67 -48 145 -76
359 -228 527 -374 l56 -48 85 85 85 85 -72 67 c-84 78 -220 186 -325 256 -88
60 -312 189 -328 189 -6 0 -30 -45 -53 -100z"/>
<path d="M3730 6440 c-200 -26 -459 -84 -481 -107 -6 -7 60 -185 74 -199 2 -2
57 9 123 26 214 54 306 63 608 57 290 -5 384 -18 591 -82 44 -13 83 -21 87
-17 9 10 78 178 78 191 0 26 -312 101 -543 131 -191 24 -355 24 -537 0z"/>
<path d="M6468 6173 l-76 -78 85 -105 c111 -137 232 -320 328 -496 l76 -142
100 41 c54 23 99 45 99 49 0 16 -103 213 -163 313 -96 161 -343 495 -365 495
-4 0 -42 -35 -84 -77z"/>
<path d="M2815 6149 c-342 -190 -618 -440 -837 -759 -80 -117 -171 -275 -166
-290 2 -7 46 -29 98 -51 109 -46 93 -53 165 75 183 324 487 624 830 817 61 34
112 64 114 65 6 5 -75 198 -85 201 -5 2 -59 -24 -119 -58z"/>
<path d="M5100 6155 c-5 -13 -23 -56 -40 -96 -16 -39 -27 -75 -24 -80 3 -5 27
-20 54 -34 81 -41 250 -159 357 -249 l102 -86 76 72 c41 40 75 78 75 83 0 11
-61 67 -165 151 -112 91 -383 264 -414 264 -6 0 -16 -11 -21 -25z"/>
<path d="M6122 5827 c-45 -45 -82 -86 -82 -90 0 -4 23 -35 51 -69 73 -91 209
-297 268 -409 l52 -97 72 28 c122 48 147 60 147 72 0 39 -182 340 -301 498
-129 171 -110 165 -207 67z"/>
<path d="M5798 5493 l-77 -78 30 -35 c48 -56 142 -197 198 -297 l51 -91 100
40 c55 22 100 45 100 52 0 45 -290 486 -319 486 -4 0 -41 -35 -83 -77z"/>
<path d="M789 5132 c-35 -91 -94 -311 -124 -457 -30 -146 -65 -427 -65 -517
l0 -28 109 0 109 0 7 73 c26 274 65 484 135 721 23 76 40 142 38 148 -3 9 -74
42 -161 74 -37 13 -38 13 -48 -14z"/>
<path d="M7135 5110 c-22 -10 -61 -27 -87 -38 l-46 -20 39 -133 c53 -178 84
-323 111 -509 32 -223 32 -597 0 -820 -27 -187 -58 -330 -112 -512 -22 -75
-40 -140 -40 -145 0 -8 50 -32 163 -78 44 -18 37 -31 98 170 182 598 186 1316
10 1917 -62 211 -57 204 -136 168z"/>
<path d="M1241 4952 c-18 -34 -80 -267 -105 -394 -19 -96 -56 -375 -56 -423 0
-3 56 -5 125 -5 l125 0 0 43 c0 127 56 427 116 621 14 44 21 83 17 87 -8 7
-198 89 -207 89 -3 0 -10 -8 -15 -18z"/>
<path d="M6645 4908 c-55 -23 -102 -43 -104 -45 -3 -2 1 -25 8 -51 8 -26 20
-69 28 -97 66 -235 93 -443 93 -715 0 -302 -32 -522 -116 -794 -14 -44 -21
-83 -17 -87 4 -4 53 -26 108 -49 88 -36 101 -39 111 -25 6 8 27 72 47 143 133
468 151 926 57 1391 -34 167 -90 363 -105 367 -5 2 -55 -16 -110 -38z"/>
<path d="M3910 4844 c-173 -32 -270 -67 -379 -138 -240 -155 -385 -424 -385
-716 0 -476 378 -855 854 -855 476 0 854 379 854 855 0 403 -272 745 -665 835
-74 17 -232 28 -279 19z"/>
<path d="M1671 4772 c-31 -58 -91 -338 -114 -529 l-14 -113 117 0 117 0 6 93
c7 103 36 257 73 391 14 49 21 92 17 97 -8 7 -177 79 -187 79 -3 0 -10 -8 -15
-18z"/>
<path d="M6250 4746 c-30 -13 -71 -31 -91 -39 l-37 -15 20 -69 c35 -124 69
-306 75 -405 l6 -98 118 0 117 0 -5 43 c-20 170 -49 339 -78 454 -19 74 -37
139 -41 144 -8 13 -23 11 -84 -15z"/>
<path d="M600 3847 c0 -81 32 -358 55 -479 41 -213 126 -508 146 -508 13 0
182 69 191 78 4 4 -11 68 -33 141 -69 235 -110 458 -134 724 l-7 77 -109 0
-109 0 0 -33z"/>
<path d="M1080 3870 c0 -53 36 -327 56 -428 24 -124 88 -367 103 -391 5 -8 34
-1 102 27 52 22 102 42 111 45 16 6 16 10 2 54 -66 214 -124 519 -124 656 l0
47 -125 0 c-79 0 -125 -4 -125 -10z"/>
<path d="M1546 3848 c2 -18 11 -87 19 -153 24 -186 94 -475 114 -475 11 0 183
71 193 79 4 3 -2 38 -13 76 -36 125 -70 308 -76 408 l-6 97 -118 0 -118 0 5
-32z"/>
<path d="M6217 3778 c-7 -104 -36 -258 -73 -392 -14 -49 -21 -92 -17 -96 14
-11 193 -83 198 -79 2 3 18 54 34 114 37 131 66 280 84 433 l14 112 -117 0
-117 0 -6 -92z"/>
<path d="M1901 2960 c-52 -22 -97 -42 -99 -45 -7 -7 89 -176 165 -288 175
-259 376 -464 631 -641 91 -64 281 -176 297 -176 6 0 29 45 52 100 l42 101
-51 27 c-97 52 -284 181 -379 260 -200 168 -391 403 -515 632 -21 39 -41 70
-44 70 -3 0 -47 -19 -99 -40z"/>
<path d="M5964 2943 c-223 -395 -505 -681 -874 -888 -47 -26 -87 -49 -89 -51
-5 -4 68 -186 79 -198 19 -19 317 166 478 296 98 80 260 242 338 338 121 149
301 433 292 460 -3 10 -172 90 -190 90 -4 0 -19 -21 -34 -47z"/>
<path d="M1478 2787 c-53 -23 -100 -45 -104 -49 -8 -8 71 -158 153 -290 66
-107 207 -296 286 -383 l54 -59 87 86 87 86 -52 58 c-122 140 -267 350 -349
507 -25 48 -49 86 -55 86 -5 0 -54 -19 -107 -42z"/>
<path d="M6351 2725 c-64 -117 -186 -301 -277 -415 -88 -109 -275 -296 -384
-384 -112 -90 -324 -230 -433 -286 -48 -25 -87 -49 -87 -55 0 -21 83 -215 93
-215 6 0 52 22 103 49 516 276 930 689 1209 1205 26 47 45 92 42 99 -4 10 -59
35 -203 94 -7 2 -35 -39 -63 -92z"/>
<path d="M1025 2600 c-49 -22 -94 -41 -99 -43 -12 -4 98 -217 183 -354 85
-137 208 -304 325 -440 l88 -102 80 79 81 79 -95 113 c-176 211 -280 363 -398
585 -36 67 -67 122 -70 122 -3 0 -45 -18 -95 -39z"/>
<path d="M6799 2496 c-314 -574 -757 -1012 -1336 -1318 -54 -28 -100 -53 -102
-55 -7 -5 74 -203 83 -203 5 0 69 31 142 70 541 282 1003 715 1319 1235 88
144 169 305 158 316 -4 4 -49 25 -100 47 l-92 40 -72 -132z"/>
<path d="M2136 1911 l-86 -87 72 -60 c156 -130 317 -240 502 -339 50 -27 91
-44 96 -39 10 11 90 198 90 210 0 5 -35 27 -77 49 -104 54 -319 198 -424 283
l-86 70 -87 -87z"/>
<path d="M3243 1780 l-42 -101 27 -10 c105 -41 378 -95 610 -122 l42 -5 0 119
0 119 -57 0 c-83 0 -239 25 -378 61 -66 17 -129 33 -140 36 -18 4 -26 -9 -62
-97z"/>
<path d="M4625 1859 c-100 -31 -299 -69 -400 -76 l-95 -6 0 -117 0 -117 113
14 c185 22 482 85 525 112 11 6 -14 81 -65 199 -6 15 -3 15 -78 -9z"/>
<path d="M1786 1561 l-78 -78 59 -52 c84 -76 302 -239 415 -310 53 -33 153
-90 222 -127 l126 -66 16 39 c9 21 28 67 44 104 l27 65 -71 37 c-191 98 -409
244 -577 383 -55 46 -101 84 -102 84 -1 0 -38 -35 -81 -79z"/>
<path d="M3101 1448 c-5 -13 -25 -61 -45 -107 -20 -46 -33 -88 -29 -92 10 -9
221 -72 318 -94 427 -98 885 -98 1310 0 106 25 279 76 289 85 9 9 -56 193 -75
214 -5 5 -72 -8 -161 -32 -269 -72 -420 -92 -708 -92 -293 0 -471 24 -740 100
-77 22 -143 40 -145 40 -3 0 -9 -10 -14 -22z"/>
<path d="M2878 923 c-20 -49 -40 -96 -43 -105 -5 -14 12 -22 102 -51 292 -94
548 -144 836 -162 l107 -7 0 110 0 110 -77 7 c-164 14 -383 47 -504 75 -100
22 -314 84 -374 106 -6 3 -27 -35 -47 -83z"/>
<path d="M4940 964 c-204 -65 -446 -111 -742 -140 l-68 -6 0 -110 0 -110 103
7 c247 16 513 65 746 135 74 23 140 44 147 48 9 5 3 31 -26 101 -21 52 -42 97
-47 101 -4 4 -55 -8 -113 -26z"/>
</g>
</svg>
